<?xml version="1.0" standalone="no"?>
<!DOCTYPE svg PUBLIC "-//W3C//DTD SVG 20010904//EN"
 "http://www.w3.org/TR/2001/REC-SVG-20010904/DTD/svg10.dtd">
<svg version="1.0" xmlns="http://www.w3.org/2000/svg"
 width="97.000000pt" height="95.000000pt" viewBox="0 0 97.000000 95.000000"
 preserveAspectRatio="xMidYMid meet">

<g transform="translate(0.000000,95.000000) scale(0.100000,-0.100000)"
fill="#000000" stroke="none">
<path d="M385 915 c-22 -7 -59 -18 -83 -26 -48 -14 -178 -132 -204 -184 -8
-17 -25 -72 -37 -123 l-23 -92 23 -93 c12 -50 29 -105 37 -122 26 -52 156
-170 204 -184 24 -8 63 -20 87 -27 57 -18 135 -18 192 0 24 7 64 20 89 27 34
10 64 33 123 92 76 77 107 127 107 174 0 13 7 38 16 54 18 36 14 123 -9 186
-9 22 -14 43 -11 46 13 13 -36 87 -104 155 -54 54 -89 81 -117 89 -22 6 -63
19 -92 27 -62 19 -143 19 -198 1z m110 -32 c-119 -62 -165 -205 -102 -317 l26
-47 -40 23 c-47 26 -89 102 -89 160 0 107 90 198 195 197 l40 0 -30 -16z m178
-28 c45 -18 62 -41 24 -31 -15 3 -48 1 -74 -4 -100 -23 -166 -98 -182 -206
l-8 -59 -16 37 c-23 50 -22 125 3 172 44 88 160 130 253 91z m-374 -22 c-56
-67 -51 -209 9 -277 9 -10 37 -32 61 -48 44 -28 45 -28 15 -28 -128 0 -227
120 -195 238 14 55 44 98 84 123 36 21 47 17 26 -8z m460 -58 c27 -14 101 -91
101 -105 0 -4 -25 6 -56 22 -71 35 -130 37 -199 4 -53 -25 -83 -53 -108 -101
-17 -31 -21 -23 -17 30 2 35 30 93 57 117 50 46 165 63 222 33z m-581 -212
c34 -65 112 -113 192 -116 28 -1 50 -3 50 -5 0 -2 -21 -12 -47 -24 -89 -39
-201 0 -245 86 -28 54 -29 140 -2 185 l19 32 6 -58 c3 -32 15 -77 27 -100z
m578 112 c48 -14 100 -57 122 -100 14 -28 25 -105 15 -105 -4 1 -21 21 -37 47
-60 94 -209 123 -305 60 l-42 -28 15 28 c21 41 69 83 112 98 50 18 60 18 120
0z m5 -118 c26 -14 57 -42 74 -68 39 -58 42 -145 8 -199 l-23 -35 0 50 c0 65
-37 144 -83 180 -45 34 -123 57 -162 49 -25 -5 -28 -4 -17 7 40 42 139 49 203
16z m-622 -121 c72 -79 226 -88 305 -18 18 17 18 16 3 -14 -22 -42 -77 -89
-123 -104 -29 -10 -48 -10 -91 0 -93 20 -153 93 -153 182 l1 43 16 -30 c8 -16
27 -43 42 -59z m542 44 c80 -41 125 -146 100 -231 -14 -45 -53 -94 -91 -114
l-28 -15 26 48 c62 109 15 253 -103 315 l-30 16 43 1 c24 0 60 -9 83 -20z
m-70 -57 c49 -45 69 -86 69 -145 -1 -109 -91 -199 -197 -198 l-38 1 30 16 c56
29 105 85 120 137 21 71 19 106 -13 170 -16 31 -25 56 -20 56 4 0 27 -17 49
-37z m-38 -121 c-1 -142 -148 -232 -280 -172 -24 10 -43 20 -43 22 0 2 24 4
53 4 130 3 226 101 227 231 l1 48 21 -40 c15 -27 22 -57 21 -93z m-84 30 c-48
-152 -251 -193 -342 -70 -40 54 -38 56 21 25 50 -25 65 -28 120 -24 76 6 128
37 175 104 27 38 32 42 35 24 2 -12 -2 -38 -9 -59z"/>
</g>
</svg>
