<?xml version="1.0" standalone="no"?>
<!DOCTYPE svg PUBLIC "-//W3C//DTD SVG 20010904//EN"
 "http://www.w3.org/TR/2001/REC-SVG-20010904/DTD/svg10.dtd">
<svg version="1.0" xmlns="http://www.w3.org/2000/svg"
 width="367.000000pt" height="99.000000pt" viewBox="0 0 367.000000 99.000000"
 preserveAspectRatio="xMidYMid meet">

<g transform="translate(0.000000,99.000000) scale(0.100000,-0.100000)"
fill="#000000" stroke="none">
<path d="M475 935 c-22 -7 -59 -18 -83 -26 -48 -14 -178 -132 -204 -184 -8
-17 -25 -72 -37 -123 l-23 -92 23 -93 c12 -50 29 -105 37 -122 26 -52 156
-170 204 -184 24 -8 63 -20 87 -27 57 -18 135 -18 192 0 24 7 64 20 89 27 34
10 64 33 123 92 76 77 107 127 107 174 0 13 7 38 16 54 18 36 14 123 -9 186
-9 22 -14 43 -11 46 13 13 -36 87 -104 155 -54 54 -89 81 -117 89 -22 6 -63
19 -92 27 -62 19 -143 19 -198 1z m110 -32 c-119 -62 -165 -205 -102 -317 l26
-47 -40 23 c-47 26 -89 102 -89 160 0 107 90 198 195 197 l40 0 -30 -16z m178
-28 c45 -18 62 -41 24 -31 -15 3 -48 1 -74 -4 -100 -23 -166 -98 -182 -206
l-8 -59 -16 37 c-23 50 -22 125 3 172 44 88 160 130 253 91z m-374 -22 c-56
-67 -51 -209 9 -277 9 -10 37 -32 61 -48 44 -28 45 -28 15 -28 -128 0 -227
120 -195 238 14 55 44 98 84 123 36 21 47 17 26 -8z m460 -58 c27 -14 101 -91
101 -105 0 -4 -25 6 -56 22 -71 35 -130 37 -199 4 -53 -25 -83 -53 -108 -101
-17 -31 -21 -23 -17 30 2 35 30 93 57 117 50 46 165 63 222 33z m-581 -212
c34 -65 112 -113 192 -116 28 -1 50 -3 50 -5 0 -2 -21 -12 -47 -24 -89 -39
-201 0 -245 86 -28 54 -29 140 -2 185 l19 32 6 -58 c3 -32 15 -77 27 -100z
m578 112 c48 -14 100 -57 122 -100 14 -28 25 -105 15 -105 -4 1 -21 21 -37 47
-60 94 -209 123 -305 60 l-42 -28 15 28 c21 41 69 83 112 98 50 18 60 18 120
0z m5 -118 c26 -14 57 -42 74 -68 39 -58 42 -145 8 -199 l-23 -35 0 50 c0 65
-37 144 -83 180 -45 34 -123 57 -162 49 -25 -5 -28 -4 -17 7 40 42 139 49 203
16z m-622 -121 c72 -79 226 -88 305 -18 18 17 18 16 3 -14 -22 -42 -77 -89
-123 -104 -29 -10 -48 -10 -91 0 -93 20 -153 93 -153 182 l1 43 16 -30 c8 -16
27 -43 42 -59z m542 44 c80 -41 125 -146 100 -231 -14 -45 -53 -94 -91 -114
l-28 -15 26 48 c62 109 15 253 -103 315 l-30 16 43 1 c24 0 60 -9 83 -20z
m-70 -57 c49 -45 69 -86 69 -145 -1 -109 -91 -199 -197 -198 l-38 1 30 16 c56
29 105 85 120 137 21 71 19 106 -13 170 -16 31 -25 56 -20 56 4 0 27 -17 49
-37z m-38 -121 c-1 -142 -148 -232 -280 -172 -24 10 -43 20 -43 22 0 2 24 4
53 4 130 3 226 101 227 231 l1 48 21 -40 c15 -27 22 -57 21 -93z m-84 30 c-48
-152 -251 -193 -342 -70 -40 54 -38 56 21 25 50 -25 65 -28 120 -24 76 6 128
37 175 104 27 38 32 42 35 24 2 -12 -2 -38 -9 -59z"/>
<path d="M1380 773 c0 -5 17 -26 38 -46 36 -35 41 -37 65 -26 33 15 33 20 4
47 -23 22 -107 42 -107 25z"/>
<path d="M1322 747 c-25 -26 -29 -74 -9 -101 7 -10 38 -24 68 -30 36 -8 55
-18 57 -29 3 -13 -4 -17 -30 -17 -19 0 -39 5 -45 11 -15 15 -63 3 -63 -16 0
-8 10 -23 22 -35 31 -29 125 -28 162 1 58 45 16 130 -71 144 -44 7 -59 30 -27
42 13 5 12 9 -7 29 -28 30 -30 30 -57 1z"/>
<path d="M1550 679 l0 -92 25 23 c14 13 25 32 25 41 0 11 5 16 13 13 8 -3 20
2 27 12 12 14 11 21 -5 52 -16 29 -27 38 -52 40 l-33 3 0 -92z"/>
<path d="M1720 713 c-40 -71 -39 -70 -50 -54 -9 16 -38 8 -46 -12 -8 -21 35
-87 57 -87 13 0 28 18 46 55 l28 55 -3 -80 c-4 -76 -3 -80 17 -80 18 0 20 4
15 27 -6 22 -4 25 10 20 14 -6 16 6 16 103 l0 110 -29 0 c-25 0 -34 -8 -61
-57z"/>
<path d="M1930 755 c0 -18 8 -18 40 0 l25 14 -32 1 c-23 0 -33 -5 -33 -15z"/>
<path d="M2120 713 l0 -57 55 54 c30 30 55 56 55 57 0 2 -25 3 -55 3 l-55 0 0
-57z"/>
<path d="M2216 741 l-28 -29 28 -4 c21 -2 30 -9 32 -25 3 -20 -1 -23 -32 -23
-30 0 -36 3 -36 22 0 21 -1 21 -30 -7 -28 -26 -30 -34 -30 -97 l0 -68 30 0
c29 0 30 2 30 46 0 38 3 45 17 42 10 -2 28 -22 41 -46 21 -37 28 -42 58 -42
19 0 34 2 34 5 0 3 -9 24 -20 46 -19 36 -19 42 -5 62 8 12 15 40 15 63 0 34
-5 47 -26 63 -35 28 -45 27 -78 -8z"/>
<path d="M2350 740 c0 -27 3 -30 32 -30 l32 0 -29 30 c-16 17 -30 30 -32 30
-2 0 -3 -13 -3 -30z"/>
<path d="M2420 715 c53 -54 55 -55 58 -30 3 21 8 25 38 25 31 0 34 2 34 30 l0
30 -92 0 -92 0 54 -55z"/>
<path d="M1970 734 c-14 -7 -33 -13 -42 -14 -11 0 -20 -11 -24 -26 -5 -21 -2
-31 17 -45 l24 -19 -25 0 c-31 0 -50 -17 -50 -44 0 -12 -7 -30 -15 -40 -22
-29 -19 -36 19 -36 26 0 36 5 41 20 5 16 15 20 54 20 37 0 52 5 70 24 24 26
24 33 -6 104 -14 33 -14 34 -34 16 -16 -14 -20 -27 -16 -51 5 -30 3 -33 -20
-33 -19 0 -24 4 -19 16 3 9 9 28 13 42 3 14 17 35 31 47 30 26 17 39 -18 19z"/>
<path d="M2420 607 l0 -97 30 0 30 0 0 68 c0 63 -2 71 -30 97 l-30 29 0 -97z"/>
<path d="M1571 594 c-12 -15 -21 -40 -21 -55 0 -26 4 -29 30 -29 30 0 30 1 30
55 0 61 -9 68 -39 29z"/>
<path d="M2032 558 c-7 -7 -12 -20 -12 -30 0 -14 8 -18 35 -18 39 0 42 6 19
38 -17 25 -25 27 -42 10z"/>
<path d="M1596 411 c-8 -13 31 -54 46 -49 15 5 34 35 27 42 -12 12 -67 17 -73
7z"/>
<path d="M1825 413 c-32 -8 -64 -44 -71 -80 -12 -63 10 -53 88 40 41 48 39 53
-17 40z"/>
<path d="M3164 413 c-12 -2 -32 -15 -45 -29 -31 -33 -39 -135 -15 -182 21 -41
44 -52 106 -52 41 0 56 5 75 25 14 13 25 31 25 38 0 22 -49 31 -69 12 -21 -18
-52 -20 -69 -3 -13 13 -16 96 -4 114 14 21 41 23 66 3 19 -15 30 -17 50 -9 14
5 26 12 26 15 0 20 -26 49 -55 61 -34 14 -50 15 -91 7z"/>
<path d="M1300 374 c0 -42 13 -41 48 4 l25 32 -37 0 c-35 0 -36 -1 -36 -36z"/>
<path d="M1347 362 c-39 -39 -47 -54 -47 -85 0 -34 2 -36 23 -28 12 5 48 6 80
3 l57 -4 0 30 c0 30 -2 31 -47 34 -36 2 -49 7 -51 21 -3 15 5 17 57 17 l61 0
0 30 c0 29 -2 30 -43 30 -38 0 -48 -5 -90 -48z"/>
<path d="M1866 381 l-27 -28 26 0 c35 0 45 -17 45 -79 0 -38 5 -56 19 -68 27
-24 39 -14 47 39 9 61 -3 112 -31 141 -31 31 -45 30 -79 -5z"/>
<path d="M2014 397 c-2 -7 -3 -65 -2 -128 l3 -114 34 -3 34 -3 -6 78 -6 78 26
-52 c36 -72 59 -72 96 0 21 40 27 45 24 24 l-5 -29 34 33 c19 18 34 39 34 46
0 7 -15 29 -32 48 l-33 36 -35 -66 -34 -66 -33 66 c-30 58 -36 65 -63 65 -17
0 -33 -6 -36 -13z"/>
<path d="M2245 390 c10 -11 22 -20 27 -20 4 0 8 9 8 20 0 15 -7 20 -27 20 -25
0 -26 0 -8 -20z"/>
<path d="M2320 383 l0 -26 27 24 27 24 -27 -33 c-34 -42 -34 -52 3 -87 27 -25
30 -27 30 -9 1 13 6 9 20 -17 40 -76 69 -76 104 3 l23 52 -5 -82 -5 -82 32 0
31 0 0 130 0 130 -30 0 c-26 0 -33 -7 -60 -60 -17 -33 -34 -60 -38 -60 -5 0
-19 23 -32 51 -25 52 -44 69 -79 69 -16 0 -21 -6 -21 -27z"/>
<path d="M2630 290 c0 -66 4 -120 8 -120 4 0 14 6 22 13 8 6 6 2 -4 -10 l-19
-23 44 0 c38 0 46 4 61 30 l17 30 -36 0 c-28 0 -34 3 -29 16 3 9 6 18 6 20 0
2 20 4 45 4 43 0 45 1 45 28 0 25 -4 28 -37 30 -43 3 -53 8 -53 28 0 10 11 14
37 14 l37 0 -29 30 c-23 24 -37 30 -72 30 l-43 0 0 -120z"/>
<path d="M2755 380 c16 -16 35 -30 42 -30 8 0 13 12 13 30 0 29 -2 30 -42 30
l-42 0 29 -30z"/>
<path d="M2851 335 c-2 -73 -1 -75 26 -87 15 -6 38 -12 51 -12 16 -1 29 -13
45 -41 18 -32 29 -41 55 -43 37 -4 39 5 13 56 -19 37 -19 38 0 61 27 33 25 86
-6 116 -21 22 -33 25 -103 25 l-79 0 -2 -75z m134 -10 c0 -15 -8 -21 -32 -23
-30 -3 -33 -1 -33 23 0 24 3 26 33 23 24 -2 32 -8 32 -23z"/>
<path d="M3340 280 l0 -131 93 3 92 3 3 28 c3 27 3 27 -57 27 -54 0 -61 2 -61
20 0 17 7 20 45 20 43 0 45 1 45 29 0 28 -3 30 -42 33 -31 2 -44 8 -46 21 -3
14 5 17 52 17 56 0 56 0 56 30 l0 30 -90 0 -90 0 0 -130z"/>
<path d="M1526 378 c-21 -29 -21 -92 0 -109 14 -11 19 -10 35 10 11 13 19 31
19 42 0 10 5 21 10 24 12 8 -19 54 -37 55 -6 0 -19 -10 -27 -22z"/>
<path d="M1674 367 c-20 -21 -22 -47 -4 -47 5 0 20 4 34 10 23 8 25 12 14 35
-14 30 -17 31 -44 2z"/>
<path d="M1777 292 c-31 -32 -33 -51 -12 -92 20 -38 43 -50 99 -50 75 0 93 15
60 51 -12 13 -25 16 -45 12 -40 -8 -59 11 -59 58 0 49 -11 55 -43 21z"/>
<path d="M2320 227 l0 -78 33 3 c29 3 32 6 35 40 3 31 -3 43 -32 75 l-35 38
-1 -78z"/>
<path d="M2243 258 c-25 -26 -33 -43 -33 -71 0 -35 2 -37 30 -37 37 0 42 11
38 84 l-3 57 -32 -33z"/>
<path d="M1550 245 c-10 -12 -16 -13 -26 -4 -28 23 -14 -32 15 -62 42 -41 77
-39 124 9 20 21 37 41 37 45 0 14 -38 7 -44 -9 -4 -10 -16 -14 -38 -12 -25 2
-34 8 -36 26 -4 26 -14 28 -32 7z"/>
<path d="M1675 190 c-24 -25 -33 -40 -24 -40 20 0 56 27 69 50 19 35 -7 29
-45 -10z"/>
<path d="M1312 198 c-12 -12 -17 -48 -7 -48 3 0 14 5 24 12 15 9 25 9 46 0 57
-26 52 4 -6 34 -34 17 -42 17 -57 2z"/>
<path d="M1456 188 c10 -13 20 -25 21 -27 2 -2 3 8 3 22 0 21 -5 27 -22 27
-21 0 -21 0 -2 -22z"/>
<path d="M2787 182 c-23 -25 -21 -34 6 -30 14 2 23 11 25 26 4 27 -9 28 -31 4z"/>
<path d="M2850 187 c0 -16 47 -43 57 -34 8 9 -27 47 -44 47 -7 0 -13 -6 -13
-13z"/>
</g>
</svg>
